# xmcd
#
# Track frame offsets: 
#        150
#        18447
#        31690
#        50555
#        74700
#        104890
#        121460
#        148897
#        159830
#        175207
#        189827
#
# Disc length: 2837 seconds
#
# Revision: 0
# Processed by: cddbd v1.5.1PL0 Copyright (c) Steve Scherf et al.
# Submitted via: ExactAudioCopy v0.95a5
#
DISCID=9b0b130b
DTITLE=Chad Manning (Clouse) - In The Midst
DYEAR=2000
DGENRE=Bluegrass
TTITLE0=Swamp Light
TTITLE1=Mango Tango
TTITLE2=Sierra's Sleeping
TTITLE3=Chasing the Gingerbread Man
TTITLE4=Living in the Wind
TTITLE5=Cicada Serenade
TTITLE6=Winding Minds
TTITLE7=Gravel Walk to Granny's
TTITLE8=Tiny Monster
TTITLE9=Circus Train
TTITLE10=Up the Lazy River
EXTD=
EXTT0=
EXTT1=
EXTT2=
EXTT3=
EXTT4=
EXTT5=
EXTT6=
EXTT7=
EXTT8=
EXTT9=
EXTT10=
PLAYORDER=
